<svg width="48" height="47" viewBox="0 0 48 47" fill="none" xmlns="http://www.w3.org/2000/svg">
<path d="M24 0C10.746 0 0 10.6146 0 23.7065C0 34.8149 7.744 44.1098 18.184 46.682C18.072 46.3619 18 45.9905 18 45.5302V41.4784C17.026 41.4784 15.394 41.4784 14.984 41.4784C13.342 41.4784 11.882 40.781 11.174 39.4851C10.388 38.0449 10.252 35.8422 8.304 34.4949C7.726 34.0464 8.166 33.5348 8.832 33.6039C10.062 33.9476 11.082 34.7813 12.042 36.018C12.998 37.2567 13.448 37.5372 15.234 37.5372C16.1 37.5372 17.396 37.4878 18.616 37.2982C19.272 35.6525 20.406 34.1373 21.792 33.4221C13.8 32.6102 9.986 28.6828 9.986 23.3509C9.986 21.0553 10.976 18.8348 12.658 16.9639C12.106 15.1069 11.412 11.3198 12.87 9.87769C16.466 9.87769 18.64 12.1812 19.162 12.8035C20.954 12.197 22.922 11.8532 24.99 11.8532C27.062 11.8532 29.038 12.197 30.834 12.8074C31.35 12.1891 33.526 9.87769 37.13 9.87769C38.594 11.3218 37.892 15.1247 37.334 16.9778C39.006 18.8447 39.99 21.0592 39.99 23.3509C39.99 28.6789 36.182 32.6043 28.202 33.4202C30.398 34.5522 32 37.7328 32 40.1291V45.5302C32 45.7357 31.954 45.8838 31.93 46.0597C41.282 42.8218 48 34.0504 48 23.7065C48 10.6146 37.254 0 24 0Z" fill="#4F4F4F"/>
</svg>
