<svg width="46" height="47" viewBox="0 0 46 47" fill="none" xmlns="http://www.w3.org/2000/svg">
<path d="M41.8182 0.993164H4.18182C1.87136 0.993164 0 2.85186 0 5.14668V42.5284C0 44.8232 1.87136 46.6819 4.18182 46.6819H41.8182C44.1286 46.6819 46 44.8232 46 42.5284V5.14668C46 2.85186 44.1286 0.993164 41.8182 0.993164ZM14.5402 38.3748H8.372V18.6622H14.5402V38.3748ZM11.3934 15.8441C9.40491 15.8441 7.797 14.2429 7.797 12.272C7.797 10.3012 9.407 8.7021 11.3934 8.7021C13.3755 8.7021 14.9876 10.3033 14.9876 12.272C14.9876 14.2429 13.3755 15.8441 11.3934 15.8441ZM37.6447 38.3748H31.4807V28.7885C31.4807 26.502 31.4389 23.5613 28.2754 23.5613C25.0658 23.5613 24.5724 26.0514 24.5724 28.6224V38.3748H18.4084V18.6622H24.3256V21.3558H24.4093C25.2331 19.8065 27.2445 18.1721 30.245 18.1721C36.4905 18.1721 37.6447 22.255 37.6447 27.5632V38.3748Z" fill="#4F4F4F"/>
</svg>
